<svg width="21" height="16" viewBox="0 0 21 16" fill="none" xmlns="http://www.w3.org/2000/svg">
<path d="M8.00078 12L10.8008 9.9L13.5508 12L12.5008 8.6L15.3008 6.4H11.9008L10.8008 3L9.70078 6.4H6.30078L9.05078 8.6L8.00078 12ZM2.80078 16C2.25078 16 1.77995 15.8042 1.38828 15.4125C0.996615 15.0208 0.800781 14.55 0.800781 14V10C1.35078 10 1.82161 9.80417 2.21328 9.4125C2.60495 9.02083 2.80078 8.55 2.80078 8C2.80078 7.45 2.60495 6.97917 2.21328 6.5875C1.82161 6.19583 1.35078 6 0.800781 6V2C0.800781 1.45 0.996615 0.979167 1.38828 0.5875C1.77995 0.195833 2.25078 0 2.80078 0H18.8008C19.3508 0 19.8216 0.195833 20.2133 0.5875C20.6049 0.979167 20.8008 1.45 20.8008 2V6C20.2508 6 19.7799 6.19583 19.3883 6.5875C18.9966 6.97917 18.8008 7.45 18.8008 8C18.8008 8.55 18.9966 9.02083 19.3883 9.4125C19.7799 9.80417 20.2508 10 20.8008 10V14C20.8008 14.55 20.6049 15.0208 20.2133 15.4125C19.8216 15.8042 19.3508 16 18.8008 16H2.80078ZM2.80078 14H18.8008V11.45C18.1841 11.0833 17.6966 10.5958 17.3383 9.9875C16.9799 9.37917 16.8008 8.71667 16.8008 8C16.8008 7.28333 16.9799 6.62083 17.3383 6.0125C17.6966 5.40417 18.1841 4.91667 18.8008 4.55V2H2.80078V4.55C3.41745 4.91667 3.90495 5.40417 4.26328 6.0125C4.62161 6.62083 4.80078 7.28333 4.80078 8C4.80078 8.71667 4.62161 9.37917 4.26328 9.9875C3.90495 10.5958 3.41745 11.0833 2.80078 11.45V14Z" fill="#FAFAFA"/>
</svg>
