<svg width="365" height="543" viewBox="0 0 365 543" fill="none" xmlns="http://www.w3.org/2000/svg">
<g filter="url(#filter0_di_1272_19023)">
<path fill-rule="evenodd" clip-rule="evenodd" d="M355 71.9081V513C355 524.046 346.046 533 335 533H30C18.9543 533 10 524.046 10 513V71.9081V71.416C10 71.4145 10.0012 71.4132 10.0027 71.4132C10.0042 71.4132 10.0054 71.4121 10.0055 71.4106C10.7503 37.4487 87.6934 10 182.5 10C277.307 10 354.25 37.4487 354.995 71.4106C354.995 71.4121 354.996 71.4132 354.997 71.4132C354.999 71.4132 355 71.4145 355 71.416V71.9081Z" fill="#2A2A2A"/>
</g>
<g filter="url(#filter1_di_1272_19023)">
<path fill-rule="evenodd" clip-rule="evenodd" d="M355 76.3163V513C355 524.046 346.046 533 335 533H30C18.9543 533 10 524.046 10 513V76.3163V75.8289C10 75.8274 10.0012 75.8262 10.0027 75.8262C10.0042 75.8262 10.0054 75.825 10.0055 75.8235C10.7504 42.1863 87.6934 15 182.5 15C277.307 15 354.25 42.1863 354.995 75.8235C354.995 75.825 354.996 75.8262 354.997 75.8262C354.999 75.8262 355 75.8274 355 75.8289V76.3163Z" fill="#FAFAFA"/>
</g>
<defs>
<filter id="filter0_di_1272_19023" x="0" y="0" width="365" height="543" filterUnits="userSpaceOnUse" color-interpolation-filters="sRGB">
<feFlood flood-opacity="0" result="BackgroundImageFix"/>
<feColorMatrix in="SourceAlpha" type="matrix" values="0 0 0 0 0 0 0 0 0 0 0 0 0 0 0 0 0 0 127 0" result="hardAlpha"/>
<feOffset/>
<feGaussianBlur stdDeviation="5"/>
<feComposite in2="hardAlpha" operator="out"/>
<feColorMatrix type="matrix" values="0 0 0 0 0.619608 0 0 0 0 0.615686 0 0 0 0 0.729412 0 0 0 0.3 0"/>
<feBlend mode="normal" in2="BackgroundImageFix" result="effect1_dropShadow_1272_19023"/>
<feBlend mode="normal" in="SourceGraphic" in2="effect1_dropShadow_1272_19023" result="shape"/>
<feColorMatrix in="SourceAlpha" type="matrix" values="0 0 0 0 0 0 0 0 0 0 0 0 0 0 0 0 0 0 127 0" result="hardAlpha"/>
<feMorphology radius="2" operator="erode" in="SourceAlpha" result="effect2_innerShadow_1272_19023"/>
<feOffset/>
<feGaussianBlur stdDeviation="2.5"/>
<feComposite in2="hardAlpha" operator="arithmetic" k2="-1" k3="1"/>
<feColorMatrix type="matrix" values="0 0 0 0 0.858824 0 0 0 0 0.866667 0 0 0 0 0.913725 0 0 0 0.3 0"/>
<feBlend mode="normal" in2="shape" result="effect2_innerShadow_1272_19023"/>
</filter>
<filter id="filter1_di_1272_19023" x="0" y="5" width="365" height="538" filterUnits="userSpaceOnUse" color-interpolation-filters="sRGB">
<feFlood flood-opacity="0" result="BackgroundImageFix"/>
<feColorMatrix in="SourceAlpha" type="matrix" values="0 0 0 0 0 0 0 0 0 0 0 0 0 0 0 0 0 0 127 0" result="hardAlpha"/>
<feOffset/>
<feGaussianBlur stdDeviation="5"/>
<feComposite in2="hardAlpha" operator="out"/>
<feColorMatrix type="matrix" values="0 0 0 0 0.619608 0 0 0 0 0.615686 0 0 0 0 0.729412 0 0 0 0.3 0"/>
<feBlend mode="normal" in2="BackgroundImageFix" result="effect1_dropShadow_1272_19023"/>
<feBlend mode="normal" in="SourceGraphic" in2="effect1_dropShadow_1272_19023" result="shape"/>
<feColorMatrix in="SourceAlpha" type="matrix" values="0 0 0 0 0 0 0 0 0 0 0 0 0 0 0 0 0 0 127 0" result="hardAlpha"/>
<feMorphology radius="2" operator="erode" in="SourceAlpha" result="effect2_innerShadow_1272_19023"/>
<feOffset/>
<feGaussianBlur stdDeviation="2.5"/>
<feComposite in2="hardAlpha" operator="arithmetic" k2="-1" k3="1"/>
<feColorMatrix type="matrix" values="0 0 0 0 0.858824 0 0 0 0 0.866667 0 0 0 0 0.913725 0 0 0 0.3 0"/>
<feBlend mode="normal" in2="shape" result="effect2_innerShadow_1272_19023"/>
</filter>
</defs>
</svg>
